<svg width="64" height="64" viewBox="0 0 64 64" fill="none" xmlns="http://www.w3.org/2000/svg">
<rect width="64" height="64" rx="32" fill="#009B7C"/>
<path fill-rule="evenodd" clip-rule="evenodd" d="M32.0002 15.3335C22.7952 15.3335 15.3335 22.7952 15.3335 32.0002C15.3335 41.2052 22.7952 48.6668 32.0002 48.6668C41.2035 48.6668 48.6668 41.2052 48.6668 32.0002C48.6668 22.7952 41.2035 15.3335 32.0002 15.3335Z" fill="white"/>
<path d="M30.3335 30.3332C30.3335 30.3332 30.3335 28.6665 32.0002 28.6665C33.6668 28.6665 33.6668 30.3332 33.6668 30.3332V38.6665C33.6668 38.6665 33.6668 40.3332 32.0002 40.3332C30.3335 40.3332 30.3335 38.6665 30.3335 38.6665V30.3332Z" fill="#009B7C"/>
<path d="M30.3335 25.3332C30.3335 24.4127 31.0797 23.6665 32.0002 23.6665C32.9206 23.6665 33.6668 24.4127 33.6668 25.3332C33.6668 26.2536 32.9206 26.9998 32.0002 26.9998C31.0797 26.9998 30.3335 26.2536 30.3335 25.3332Z" fill="#009B7C"/>
</svg>
