<svg width="65" height="64" viewBox="0 0 65 64" fill="none" xmlns="http://www.w3.org/2000/svg">
<rect x="0.5" width="64" height="64" rx="32" fill="#F89D26"/>
<path d="M47 32C47 40.0081 40.5081 46.5 32.5 46.5C24.4919 46.5 18 40.0081 18 32C18 23.9919 24.4919 17.5 32.5 17.5C40.5081 17.5 47 23.9919 47 32ZM32.5 43.5C34.433 43.5 36 41.933 36 40C36 38.067 34.433 36.5 32.5 36.5C30.567 36.5 29 38.067 29 40C29 41.933 30.567 43.5 32.5 43.5ZM32.5 20.5C30.567 20.5 29 22.067 29 24V32C29 33.933 30.567 35.5 32.5 35.5C34.433 35.5 36 33.933 36 32V24C36 22.067 34.433 20.5 32.5 20.5Z" fill="white" stroke="white" stroke-width="3"/>
</svg>
