<svg width="20" height="20" viewBox="0 0 20 20" fill="none" xmlns="http://www.w3.org/2000/svg">
<path d="M6.66667 5.83333V2.5M13.3333 5.83333V2.5M5.83333 8.75H10H14.1667M5.83333 14.1667H6.66667M13.3333 14.1667H14.1667M5.83333 11.6667H6.66667M13.3333 11.6667H14.1667M9.58333 14.1667H10.4167M9.58333 11.6667H10.4167M4.16667 17.5H15.8333C16.7538 17.5 17.5 16.7538 17.5 15.8333V5.83333C17.5 4.91286 16.7538 4.16667 15.8333 4.16667H4.16667C3.24619 4.16667 2.5 4.91286 2.5 5.83333V15.8333C2.5 16.7538 3.24619 17.5 4.16667 17.5Z" stroke="#1A2B5F" stroke-width="2" stroke-linecap="round" stroke-linejoin="round"/>
</svg>
