<svg width="24" height="24" viewBox="0 0 24 24" fill="none" xmlns="http://www.w3.org/2000/svg">
<path fill-rule="evenodd" clip-rule="evenodd" d="M12 2C6.477 2 2 6.477 2 12C2 17.523 6.477 22 12 22C17.522 22 22 17.523 22 12C22 6.477 17.522 2 12 2Z" fill="#0CA1D0"/>
<path d="M11 11C11 11 11 10 12 10C13 10 13 11 13 11V16C13 16 13 17 12 17C11 17 11 16 11 16V11Z" fill="white"/>
<path d="M11 8C11 7.44772 11.4477 7 12 7C12.5523 7 13 7.44772 13 8C13 8.55228 12.5523 9 12 9C11.4477 9 11 8.55228 11 8Z" fill="white"/>
</svg>
