<svg width="24" height="24" viewBox="0 0 24 24" fill="none" xmlns="http://www.w3.org/2000/svg">
<path d="M15.6 7.19998C15.6 8.15475 15.2207 9.07043 14.5455 9.74556C13.8704 10.4207 12.9547 10.8 12 10.8C11.0452 10.8 10.1295 10.4207 9.45437 9.74556C8.77924 9.07043 8.39995 8.15475 8.39995 7.19998C8.39995 6.2452 8.77924 5.32952 9.45437 4.65439C10.1295 3.97926 11.0452 3.59998 12 3.59998C12.9547 3.59998 13.8704 3.97926 14.5455 4.65439C15.2207 5.32952 15.5999 6.2452 15.6 7.19998ZM21.6 9.59998C21.6 10.2365 21.3471 10.8469 20.897 11.297C20.4469 11.7471 19.8365 12 19.1999 12C18.5634 12 17.953 11.7471 17.5029 11.297C17.0528 10.8469 16.8 10.2365 16.8 9.59998C16.8 8.96346 17.0528 8.35301 17.5029 7.90292C17.953 7.45283 18.5634 7.19998 19.1999 7.19998C19.8365 7.19998 20.4469 7.45283 20.897 7.90292C21.3471 8.35301 21.6 8.96346 21.6 9.59998ZM16.8 18C16.8 16.7269 16.2942 15.506 15.3941 14.6059C14.4939 13.7057 13.273 13.2 12 13.2C10.7269 13.2 9.50601 13.7057 8.60584 14.6059C7.70566 15.506 7.19995 16.7269 7.19995 18V21.6H16.8V18ZM7.19995 9.59998C7.19995 10.2365 6.94709 10.8469 6.49701 11.297C6.04692 11.7471 5.43647 12 4.79995 12C4.16343 12 3.55298 11.7471 3.10289 11.297C2.65281 10.8469 2.39995 10.2365 2.39995 9.59998C2.39995 8.96346 2.65281 8.35301 3.10289 7.90292C3.55298 7.45283 4.16343 7.19998 4.79995 7.19998C5.43647 7.19998 6.04692 7.45283 6.49701 7.90292C6.94709 8.35301 7.19995 8.96346 7.19995 9.59998ZM19.1999 21.6V18C19.2017 16.7799 18.8919 15.5796 18.2999 14.5128C18.832 14.3766 19.3881 14.3638 19.9258 14.4752C20.4635 14.5867 20.9687 14.8195 21.4028 15.1559C21.8368 15.4922 22.1884 15.9233 22.4305 16.4162C22.6726 16.9091 22.799 17.4508 22.7999 18V21.6H19.1999ZM5.69995 14.5128C5.10805 15.5796 4.79827 16.7799 4.79995 18V21.6H1.19995V18C1.19972 17.4504 1.32531 16.9081 1.56709 16.4146C1.80887 15.9211 2.16042 15.4895 2.59481 15.1529C3.0292 14.8163 3.53489 14.5835 4.07312 14.4726C4.61136 14.3616 5.16785 14.3754 5.69995 14.5128Z" fill="#6F6F6D"/>
</svg>
