<svg width="24" height="24" viewBox="0 0 24 24" fill="none" xmlns="http://www.w3.org/2000/svg">
<path fill-rule="evenodd" clip-rule="evenodd" d="M12 3C6.59115 3 2.00002 6.92196 2.00002 12C2.00002 13.6065 2.4678 15.1108 3.27874 16.4087L2.06369 19.6489C1.9362 19.9888 2.003 20.3712 2.23822 20.6478C2.47343 20.9244 2.84009 21.0518 3.19613 20.9806L7.62323 20.0952C8.94859 20.6761 10.4348 21 12 21C17.4089 21 22 17.078 22 12C22 6.92196 17.4089 3 12 3ZM7.00002 12C7.00002 11.4477 7.44773 11 8.00002 11H8.01002C8.5623 11 9.01002 11.4477 9.01002 12C9.01002 12.5523 8.5623 13 8.01002 13H8.00002C7.44773 13 7.00002 12.5523 7.00002 12ZM11 12C11 11.4477 11.4477 11 12 11H12.01C12.5623 11 13.01 11.4477 13.01 12C13.01 12.5523 12.5623 13 12.01 13H12C11.4477 13 11 12.5523 11 12ZM16 11C15.4477 11 15 11.4477 15 12C15 12.5523 15.4477 13 16 13H16.01C16.5623 13 17.01 12.5523 17.01 12C17.01 11.4477 16.5623 11 16.01 11H16Z" fill="#6F6F6D"/>
</svg>
