<svg width="24" height="24" viewBox="0 0 24 24" fill="none" xmlns="http://www.w3.org/2000/svg">
<path d="M2.01499 16.4108L2.12236 16.2692C2.1814 16.1914 2.2869 16.0866 2.3568 16.0365C2.48313 15.9458 2.49204 15.9452 3.86123 15.9335L5.23859 15.9219M2.01499 16.4108L11.2356 1.91737C11.1317 1.89864 11.0166 1.89333 10.92 1.91006L10.937 2.0086C10.8583 2.0222 10.744 2.0662 10.683 2.10634C10.6221 2.14644 10.1189 2.58738 9.56479 3.08615C9.01072 3.58492 8.54347 3.9979 8.5264 4.00384C8.50932 4.00977 8.05712 3.62341 7.52149 3.1452C6.98583 2.667 6.49451 2.23412 6.42965 2.18324M2.01499 16.4108L2.00361 17.5993M2.01499 16.4108L2.00361 17.5993M5.23859 15.9219V9.2583C5.23859 3.7506 5.24774 2.57271 5.29138 2.46762M5.23859 15.9219L5.23774 15.8219L5.13859 15.8227M5.23859 15.9219H5.13859V15.8227M5.29138 2.46762C5.36203 2.29746 5.59139 2.10076 5.78836 2.04139C5.98397 1.98242 6.24811 2.04084 6.42965 2.18324M5.29138 2.46762L5.19902 2.42928M5.29138 2.46762L5.19903 2.42927C5.24252 2.32451 5.32986 2.2207 5.4274 2.13705C5.52558 2.05285 5.64419 1.9804 5.7595 1.94565L5.19902 2.42928M6.42965 2.18324L6.49137 2.10456M6.42965 2.18324L6.49136 2.10456L6.49137 2.10456M6.49137 2.10456C6.28805 1.94508 5.99068 1.87595 5.75951 1.94564L6.49137 2.10456ZM5.19902 2.42928C5.19147 2.44748 5.18747 2.46817 5.1848 2.48523C5.18182 2.50429 5.17924 2.52765 5.17693 2.55536C5.17229 2.61089 5.16829 2.689 5.16477 2.79517C5.15773 3.0078 5.15249 3.33809 5.14862 3.8362C5.14088 4.83274 5.13859 6.50455 5.13859 9.2583V15.8227M5.19902 2.42928L16.5866 2.01294C16.6091 2.03033 16.6379 2.05342 16.6716 2.08124C16.7393 2.13696 16.8293 2.21332 16.9351 2.3046C17.1468 2.48726 17.423 2.73094 17.7129 2.99162L17.646 3.06598L17.7129 2.99163C18.0022 3.25184 18.2674 3.48828 18.4615 3.65959C18.5586 3.74528 18.6377 3.81447 18.6931 3.86212C18.7025 3.87021 18.7111 3.87762 18.719 3.88437C18.7252 3.8792 18.7317 3.87364 18.7387 3.86767C18.7902 3.8239 18.8638 3.76031 18.954 3.68154C19.1343 3.52406 19.3805 3.30671 19.649 3.06754C20.1838 2.59118 20.6947 2.14592 20.7809 2.08222C21.2057 1.7683 21.8004 1.93249 22.019 2.41692M5.13859 15.8227L3.86039 15.8335C3.17792 15.8393 2.82914 15.8424 2.63612 15.8556C2.53968 15.8622 2.47385 15.8717 2.42173 15.8887C2.36603 15.9068 2.3311 15.9318 2.29874 15.9551L2.2985 15.9552C2.21946 16.012 2.10696 16.124 2.04268 16.2088L1.93531 16.3504L1.91531 16.3767L1.91499 16.4098L1.90362 17.5983C1.89364 18.6413 1.90076 18.8399 1.96895 19.1757C2.12293 19.9341 2.4711 20.5618 3.03303 21.0939C3.54395 21.5777 4.11732 21.8828 4.78781 22.0265C4.95644 22.0627 5.14712 22.0802 6.09337 22.0896C7.04331 22.099 8.76301 22.1 11.9984 22.1C15.2338 22.1 16.9535 22.099 17.9034 22.0896C18.8497 22.0802 19.0404 22.0627 19.209 22.0265C19.8795 21.8828 20.4528 21.5777 20.9638 21.0939C21.5213 20.5659 21.8724 19.9365 22.0255 19.19C22.0627 19.0089 22.0806 18.821 22.09 17.7213C22.0994 16.6179 22.1001 14.5886 22.1 10.7161C22.0998 6.82977 22.099 4.80278 22.0896 3.72842C22.0849 3.19177 22.0781 2.8907 22.068 2.71388C22.058 2.53898 22.0445 2.47329 22.019 2.41692M22.019 2.41692C22.019 2.41692 22.019 2.41692 22.019 2.41691L21.9279 2.45807L22.019 2.41692ZM12.0623 4.75697L12.0622 4.75697C11.774 4.49753 11.5098 4.26193 11.3164 4.09138C11.2197 4.00606 11.1409 3.93723 11.0858 3.88989C11.077 3.88233 11.0689 3.87537 11.0614 3.869C11.0539 3.87546 11.0458 3.88251 11.0371 3.89015C10.9826 3.93767 10.9047 4.00654 10.8092 4.09174C10.6183 4.26208 10.3574 4.49698 10.0728 4.75527L10.0124 4.68863L10.0728 4.75527C9.78756 5.01415 9.51263 5.25738 9.29936 5.44079C9.19279 5.53245 9.10119 5.60953 9.0312 5.66629C8.99626 5.69463 8.96613 5.71836 8.94193 5.73647C8.92009 5.75282 8.89677 5.76945 8.87814 5.77877L8.87812 5.77878C8.77972 5.82797 8.62167 5.85695 8.4908 5.85562L8.49077 5.85562C8.42348 5.85491 8.35989 5.85146 8.29201 5.8324C8.22378 5.81325 8.15715 5.7801 8.07875 5.72755C7.92601 5.62516 7.71086 5.43639 7.33009 5.09606L7.33008 5.09606C7.1662 4.94956 7.01298 4.81378 6.89817 4.71305C6.8808 4.69781 6.86433 4.68339 6.84884 4.66986C6.84759 4.71438 6.84637 4.76645 6.8452 4.82612C6.84044 5.06794 6.83643 5.43125 6.8332 5.91261C6.82674 6.8752 6.82341 8.30837 6.82341 10.1826V15.8249L11.3475 15.835L15.9713 15.8453L16.0026 15.8453L16.0283 15.8632L16.1897 15.9757L16.1897 15.9758C16.2658 16.0289 16.3342 16.0807 16.3882 16.1489C16.4438 16.2193 16.4798 16.3012 16.5034 16.4091C16.5488 16.6159 16.553 16.9426 16.5532 17.5205C16.5532 17.7999 16.5578 18.0825 16.5651 18.3125C16.5725 18.5456 16.5826 18.7173 16.5925 18.7801L16.5925 18.7801C16.7186 19.5812 17.4211 20.2726 18.2264 20.3875C19.2074 20.5275 20.1805 19.8446 20.3782 18.8787C20.3781 18.8792 20.3782 18.8785 20.3785 18.876C20.3787 18.8746 20.379 18.8724 20.3792 18.8696C20.3799 18.8626 20.3807 18.8532 20.3814 18.841C20.383 18.8167 20.3845 18.7835 20.386 18.741C20.3889 18.656 20.3915 18.5361 20.3939 18.3802C20.3987 18.0685 20.4023 17.6146 20.4049 17.012C20.41 15.8069 20.4107 14.0081 20.4072 11.5651L20.3973 4.65538L19.9065 5.09333L19.8399 5.01871L19.9065 5.09333C19.725 5.25525 19.5439 5.4112 19.3982 5.53216C19.3253 5.59261 19.2609 5.64468 19.2094 5.68453C19.1605 5.72243 19.117 5.75425 19.0891 5.76932C18.991 5.82237 18.8385 5.85775 18.7191 5.85775C18.6007 5.85775 18.4458 5.82201 18.3472 5.76969C18.3294 5.76022 18.3065 5.74384 18.2838 5.7268C18.2593 5.7083 18.2287 5.6842 18.1933 5.6555C18.1224 5.59801 18.0299 5.52035 17.9225 5.42829C17.7075 5.24406 17.4312 5.00079 17.1452 4.74281C16.6904 4.33253 16.4314 4.10235 16.2792 3.98012C16.2136 3.92742 16.1727 3.89886 16.1474 3.88445C16.0353 3.98302 15.606 4.36751 15.1166 4.80799L15.0497 4.73367L15.1166 4.808C14.8419 5.05531 14.5787 5.28718 14.3759 5.4616C14.2745 5.54876 14.1879 5.6219 14.1223 5.67555C14.0895 5.70233 14.0615 5.72468 14.0392 5.74166C14.0194 5.75671 13.9978 5.77259 13.9808 5.78143C13.9808 5.78143 13.9808 5.78143 13.9808 5.78143L12.0623 4.75697ZM12.0623 4.75697C12.3512 5.01693 12.6277 5.26058 12.8407 5.44378M12.0623 4.75697L12.8407 5.44378M12.8407 5.44378C12.9472 5.53534 13.0381 5.61212 13.1069 5.66841M12.8407 5.44378L13.1069 5.66841M13.1069 5.66841C13.1412 5.69651 13.1706 5.71992 13.1938 5.73767M13.1069 5.66841L13.1938 5.73767M13.1938 5.73767C13.2146 5.75348 13.237 5.76989 13.2543 5.77892L13.1938 5.73767ZM2.00361 17.5993C1.99361 18.6445 2.00123 18.8322 2.06695 19.1558M2.00361 17.5993L2.06695 19.1558M2.06695 19.1558C2.21684 19.8941 2.55479 20.5033 3.10179 21.0213L2.06695 19.1558ZM16.5277 1.97243C16.4328 1.92304 16.2996 1.90339 16.176 1.90382C16.0517 1.90426 15.9171 1.92513 15.8174 1.97329L15.8174 1.9733C15.7985 1.98243 15.775 1.99915 15.7536 2.01501C15.7296 2.03285 15.6996 2.05633 15.6647 2.08444C15.5947 2.14075 15.5029 2.21752 15.3957 2.30901C15.1812 2.49209 14.9038 2.73555 14.6151 2.99534C14.3271 3.25454 14.0632 3.49008 13.8702 3.66075C13.7736 3.74613 13.695 3.81508 13.6399 3.86258C13.631 3.87025 13.6228 3.87732 13.6153 3.88378C13.6081 3.87764 13.6003 3.87095 13.592 3.86373C13.5378 3.81696 13.4604 3.74908 13.3653 3.66503C13.1753 3.497 12.9156 3.26509 12.6322 3.00991C12.3485 2.75446 12.082 2.5162 11.8812 2.33809C11.7808 2.24905 11.6967 2.17492 11.6351 2.12115C11.5764 2.07005 11.5321 2.03205 11.5163 2.0209L16.5277 1.97243ZM9.24554 8.60575L9.24553 8.60575C8.67085 8.91103 8.67982 9.78167 9.25877 10.0789C9.35366 10.1276 9.43433 10.1466 9.77358 10.1566C10.1148 10.1667 10.7356 10.1674 11.925 10.1674H14.3946H14.4219L14.4454 10.1536L14.6055 10.0591L14.5571 9.97691L14.6055 10.0591C15.0531 9.7952 15.142 9.19029 14.7981 8.79616C14.7916 8.78866 14.7851 8.78104 14.7785 8.77334C14.7342 8.72158 14.6872 8.6666 14.6139 8.62643C14.5302 8.58052 14.4195 8.55624 14.2459 8.54107C13.9222 8.51277 13.3282 8.51326 12.1561 8.51424C12.0712 8.51431 11.9832 8.51438 11.8921 8.51445C10.709 8.51529 10.0924 8.51639 9.75429 8.52675C9.41834 8.53703 9.33895 8.55613 9.24554 8.60575ZM9.44164 13.6182L9.46249 13.6284L9.48568 13.6283L13.6886 13.618L17.8916 13.6076L17.927 13.6075L17.9545 13.5852L18.1046 13.4631C18.2175 13.3712 18.3018 13.2785 18.3572 13.1701C18.4129 13.061 18.4355 12.9436 18.4367 12.8085C18.4377 12.6878 18.427 12.5881 18.3902 12.4933C18.3535 12.3986 18.2941 12.3171 18.2116 12.2275L18.138 12.2951L18.2116 12.2274C18.2024 12.2174 18.193 12.2062 18.1831 12.1942C18.1455 12.149 18.0994 12.0937 18.0225 12.0574C17.9287 12.013 17.787 11.9906 17.5323 11.9763C17.0822 11.951 16.2258 11.9498 14.5218 11.9476C14.2724 11.9473 14.0049 11.947 13.7178 11.9465C12.5053 11.9446 11.4686 11.9467 10.7234 11.9521C10.3509 11.9547 10.0509 11.9582 9.83824 11.9624C9.73197 11.9645 9.64699 11.9668 9.58545 11.9692C9.55475 11.9705 9.52924 11.9718 9.50955 11.9732C9.49305 11.9743 9.47249 11.976 9.45735 11.9796C8.71628 12.157 8.58074 13.1989 9.26932 13.5343L9.44164 13.6182ZM3.63525 18.9396L3.53844 18.9646L3.63525 18.9396C3.59857 18.7979 3.58026 18.5392 3.58026 18.0797V17.5196H9.22414H14.8681L14.8684 17.862C14.8693 19.029 15.0265 19.734 15.4595 20.4279L10.3922 20.4165C7.91105 20.4109 6.59623 20.407 5.87651 20.396C5.14963 20.3848 5.04279 20.3659 4.9609 20.3382C4.29975 20.1145 3.80334 19.5888 3.63525 18.9396Z" fill="#6F6F6D" stroke="#6F6F6D" stroke-width="0.2"/>
</svg>
